<?xml version="1.0" encoding="utf-8"?>
<!-- Generator: Adobe Illustrator 22.1.0, SVG Export Plug-In . SVG Version: 6.00 Build 0)  -->
<svg version="1.1" id="Layer_1" xmlns="http://www.w3.org/2000/svg" xmlns:xlink="http://www.w3.org/1999/xlink" x="0px" y="0px"
	 viewBox="0 0 100 100" style="enable-background:new 0 0 100 100;" xml:space="preserve">
<style type="text/css">
	.st0{opacity:0.16;}
	.st1{opacity:0.61;}
	.st2{fill:#31322F;}
</style>
<title>icon-mask</title>
<desc>Created with Sketch.</desc>
<path id="Combined-Shape" class="st0" d="M50,100C22.4,100,0,77.6,0,50S22.4,0,50,0s50,22.4,50,50S77.6,100,50,100z"/>
<g id="Symbols-_x2B_-navigation" class="st1">
	<g id="Full.H.logout_wishlist" transform="translate(-71.000000, -22.000000)">
		<g id="Top-Nav---logged-out">
			<g id="afterpay_logo" transform="translate(71.000000, 22.000000)">
				<path id="Fill-1" class="st2" d="M50.1,50c0-1.1-0.9-2.1-2-2.1c-1.1,0-2,1-2,2.1c0,1.1,0.9,2.1,2,2.1
					C49.2,52.1,50.1,51.2,50.1,50z M51,47.1c0.8,0.8,1.2,1.8,1.2,2.9c0,1.1-0.4,2.1-1.2,2.9c-0.8,0.8-1.8,1.2-2.9,1.2
					c-0.7,0-1.4-0.3-2-0.8l-0.1-0.1v4.6L44,58.6V46.1h2.1v0.6l0.1-0.1c0.6-0.6,1.3-0.7,2-0.7C49.2,45.9,50.2,46.3,51,47.1z"/>
				<path id="Fill-4" class="st2" d="M55.1,50c0,1.1,0.9,2.1,2,2.1c1.1,0,2-1,2-2.1c0-1.1-0.9-2.1-2-2.1C56,47.9,55.1,48.9,55.1,50z
					 M54.2,53C53.4,52.2,53,51.1,53,50c0-1.1,0.4-2.1,1.2-2.9c0.8-0.8,1.8-1.2,2.9-1.2c0.7,0,1.4,0.3,2,0.8l0.1,0.1v-0.7h2.1V54
					h-2.1v-0.6l-0.1,0.1c-0.6,0.6-1.3,0.7-2,0.7C56,54.1,55,53.7,54.2,53z"/>
				<polyline id="Fill-7" class="st2" points="63.3,58.6 65.2,54 62.1,46.1 64.4,46.1 66.3,51 68.3,46.1 70.6,46.1 65.6,58.6 
					63.3,58.6 				"/>
				<path id="Fill-10" class="st2" d="M13.4,47.3c-1.5,0-2.8,1.2-2.8,2.8s1.2,2.8,2.8,2.8c1.5,0,2.8-1.2,2.8-2.8
					S14.9,47.3,13.4,47.3z M13.4,54.1c-1.1,0-2.1-0.4-2.9-1.2c-0.8-0.8-1.2-1.8-1.2-2.9c0-1.1,0.4-2.1,1.2-2.9
					c0.8-0.7,1.8-1.2,2.9-1.2c1.1,0,2,0.6,2.6,1.1l0.2,0.1v-1h1.3v7.7h-1.3v-1L16,53C15.4,53.5,14.5,54.1,13.4,54.1z"/>
				<path id="Fill-11" class="st2" d="M19.8,53.9v-6.5h-1.2v-1.2h1.2v-2.3c0-1.4,1.1-2.5,2.5-2.5h1.6l-0.3,1.2h-1.3
					c-0.7,0-1.3,0.6-1.3,1.3v2.2h2.4v1.2h-2.4v6.5H19.8"/>
				<path id="Fill-12" class="st2" d="M28.3,53.9c-1.4,0-2.5-1.1-2.5-2.5v-4h-1.2v-1.2h1.2v-4.8h1.3v4.8h2.4v1.2h-2.4v3.9
					c0,0.7,0.6,1.3,1.3,1.3h1.3l0.3,1.2H28.3"/>
				<path id="Fill-13" class="st2" d="M33.8,47.3c-1,0-1.9,0.7-2.3,1.8l0,0l-0.1,0.1h4.8l-0.1-0.2C35.8,48,34.9,47.3,33.8,47.3z
					 M33.8,54c-1,0-1.9-0.4-2.6-1.2c-0.6-0.7-1-1.5-1-2.4c0-0.1,0-0.2,0-0.4c0-0.3,0-0.6,0.1-0.9c0.1-0.7,0.5-1.3,1-1.9
					c0.7-0.7,1.6-1.2,2.6-1.2c1,0,1.9,0.4,2.6,1.2c0.5,0.6,0.8,1.2,1,1.9c0.1,0.6,0.1,1,0.1,1.1h-6.1v0.1c0.2,1.4,1.2,2.4,2.4,2.4
					c0.7,0,1.5-0.3,2-0.8l1.1,0.6c-0.3,0.3-0.6,0.6-0.9,0.8C35.3,53.8,34.6,54,33.8,54z"/>
				<path id="Fill-14" class="st2" d="M38.8,53.9v-7.7h1.3v1l0.2-0.2c0.5-0.5,1.8-0.9,2.7-0.9l-0.3,1.3c-1.4,0-2.5,1.1-2.5,2.5v4.1
					H38.8"/>
				<path id="Fill-16" class="st2" d="M81.7,48.3c0.8-0.4,1.5-0.9,2.2-1.3c-0.2-0.4-0.2-0.3-0.4-0.7c-0.2-0.4-0.1-0.6,0.3-0.6
					c1.4,0,2.9,0,4.3,0c0.4,0,0.5,0.2,0.3,0.6c-0.7,1.3-1.4,2.5-2.2,3.7c-0.2,0.4-0.4,0.4-0.7,0c-0.2-0.4-0.2-0.3-0.4-0.8
					c-0.8,0.4-1.5,0.9-2.2,1.3c0,0.1,0.1,0.2,0.1,0.3c0.6,1,0.8,1.4,1.4,2.4c0.7,1.1,2.1,1.2,2.9,0.2c0.1-0.1,0.2-0.2,0.2-0.4
					c1.4-2.4,2.7-4.7,4.1-7.1c0.1-0.2,0.3-0.5,0.3-0.8c0.2-1.1-0.6-2.1-1.7-2.1c-2.9,0-5.8,0-8.7,0c-1.3,0-2.1,1.3-1.5,2.5
					c0.2,0.4,0.4,0.7,0.6,1.1C81.2,47.3,81.3,47.5,81.7,48.3"/>
				<path id="Fill-18" class="st2" d="M75.2,55.5c0-0.9,0-2.6,0-2.6s-0.4,0-0.8,0c-0.5,0-0.6-0.2-0.4-0.6c0.7-1.2,1.4-2.5,2.2-3.7
					c0.2-0.4,0.4-0.4,0.6,0c0.7,1.2,1.4,2.5,2.1,3.7c0.2,0.4,0.1,0.6-0.3,0.6c-0.5,0-0.9,0-0.9,0l0,2.6c0,0,1.9,0,3,0
					c1.3,0,2.1-1.2,1.6-2.4c-0.1-0.1-0.1-0.3-0.2-0.4c-1.3-2.3-2.7-4.7-4-7c-0.1-0.2-0.3-0.5-0.5-0.7c-0.8-0.7-2-0.6-2.6,0.4
					c-1.5,2.5-2.9,5-4.3,7.5c-0.7,1.1,0.1,2.5,1.4,2.6C72.5,55.6,74.3,55.5,75.2,55.5"/>
			</g>
		</g>
	</g>
</g>
</svg>
